# xmcd CD database file
#
# Track frame offsets:
#	150
#	19890
#	36617
#	59012
#	81552
#	98055
#	117355
#	143437
#	168965
#	191862
#
# Disc length: 2861 seconds
#
# Revision: 1
# Processed by: cddbd v1.4PL0 Copyright (c) Steve Scherf et al.
# Submitted via: CDex 1.51
#
DISCID=8f0b2b0a
DTITLE=Jimmy Hamilton - As time goes by
DYEAR=1900
DGENRE=Jazz
TTITLE0=Stranger on the shore
TTITLE1=Misty
TTITLE2=Shadow of your smile
TTITLE3=As time goes by
TTITLE4=DEparting lovers
TTITLE5=Don't get around anymore
TTITLE6=Warm valley
TTITLE7='C' Jam blues
TTITLE8=Happy go lucky local
TTITLE9=Satin doll
EXTD=
EXTT0=
EXTT1=
EXTT2=
EXTT3=
EXTT4=
EXTT5=
EXTT6=
EXTT7=
EXTT8=
EXTT9=
PLAYORDER=
